<svg xmlns="http://www.w3.org/2000/svg" width="149" height="36" viewBox="0 0 149 36" fill="none"><g clip-path="url(#clip0_28_472)"><path d="M114.739 31.2616V28.8024H117.512L118.552 26.2413L113.208 13.9097H116.41L120.08 22.6895H120.18L123.73 13.9097H126.808L121.568 26.3039L119.515 31.2616H114.735H114.739Z" fill="currentColor"></path><path d="M41.0435 18.1429C41.0435 12.7271 44.4154 9.15175 49.7131 9.15175C54.1639 9.15175 57.0641 11.5797 57.3541 15.1002H54.5081C54.0092 12.9934 52.4547 11.7911 50.9505 11.7911H48.553C46.1014 11.7911 43.9166 14.5911 43.9166 18.0881C43.9166 21.5851 46.1555 24.3303 48.7657 24.3303H50.5329C52.4818 24.3303 54.0092 23.1554 54.6434 21.9023V19.6859H50.4014V17.3127H57.2768V22.756C56.2211 24.8354 53.8507 26.9736 49.6899 26.9736C44.4463 26.9736 41.0473 23.7194 41.0473 18.1429H41.0435Z" fill="currentColor"></path><path d="M59.334 20.2772C59.334 16.1967 62.0215 13.5533 65.9464 13.5533C69.6625 13.5533 72.1373 15.8481 72.1373 20.4103V21.0525H62.0988C62.3618 22.9988 63.576 24.5221 65.3934 24.5221H66.5264C67.9495 24.5221 68.8698 23.641 69.1598 22.521H71.9015C71.5573 25.0821 69.4769 26.9775 65.8691 26.9775C61.7044 26.9775 59.334 24.1501 59.334 20.2811V20.2772ZM69.3454 18.9183C69.214 17.1287 67.9765 16.0087 66.6309 16.0087H65.1808C63.7307 16.0087 62.5706 17.1561 62.2032 18.9183H69.3416H69.3454Z" fill="currentColor"></path><path d="M74.1211 13.5533H81.0235C84.1325 13.5533 85.95 15.343 85.95 18.6246V26.6015H83.1851V19.1023C83.1851 17.2618 82.2648 16.1692 80.9462 16.1692H76.8898V26.6015H74.125V13.5533H74.1211Z" fill="currentColor"></path><path d="M88.2778 9.52377H91.1239V23.9582H97.4115V26.6016H88.2778V9.52377Z" fill="currentColor"></path><path d="M98.2002 20.2497C98.2002 16.3024 100.729 13.5533 104.341 13.5533C106.212 13.5533 107.74 14.4345 108.556 15.4487V13.9293H111.27V26.6015H108.556V24.8119C107.608 26.0376 106.236 26.9736 104.26 26.9736C100.625 26.9736 98.2002 24.2245 98.2002 20.2497ZM104.078 24.4673H105.737C107.291 24.4673 108.478 23.1319 108.478 21.3971V19.1807C108.478 17.5007 107.373 16.0596 105.737 16.0596H104.078C102.365 16.0596 100.969 17.9275 100.969 20.2497C100.969 22.5719 102.365 24.4673 104.078 24.4673Z" fill="currentColor"></path><path d="M126.812 20.2772C126.812 16.1967 129.499 13.5533 133.424 13.5533C137.14 13.5533 139.615 15.8481 139.615 20.4103V21.0525H129.576C129.839 22.9988 131.054 24.5221 132.871 24.5221H134.004C135.427 24.5221 136.347 23.641 136.637 22.521H139.379C139.035 25.0821 136.954 26.9775 133.347 26.9775C129.182 26.9775 126.812 24.1501 126.812 20.2811V20.2772ZM136.823 18.9183C136.691 17.1287 135.454 16.0087 134.108 16.0087H132.658C131.208 16.0087 130.048 17.1561 129.681 18.9183H136.819H136.823Z" fill="currentColor"></path><path d="M141.599 13.9293H149.004V16.6235H144.367V26.6015H141.603V13.9293H141.599Z" fill="currentColor"></path><path d="M17.115 12.6683L10.7191 26.2843L16.7399 29.331L0 36L17.115 0V12.6683Z" fill="currentColor"></path><path d="M20.688 12.6683L27.0839 26.2843L21.0631 29.331L37.803 36L20.688 0V12.6683Z" fill="currentColor"></path><path d="M18.8087 17.1443L22.5557 24.6474L18.8087 26.5076L15.2627 24.6396L18.8087 17.1443Z" fill="currentColor"></path></g><defs><clippath id="clip0_28_472"><rect width="149" height="36" fill="currentColor"></rect></clippath></defs></svg>
